P2 
16 16 
255 
000 001 002 003 004 005 006 007 008 009 010 011 012 013 014 015 
001 002 003 004 005 006 007 008 009 010 011 012 013 014 015 016 
002 003 004 005 006 007 008 009 010 011 012 013 014 015 016 017 
003 004 005 006 007 008 009 010 011 012 013 014 015 016 017 018 
004 005 006 007 008 009 010 011 012 013 014 015 016 017 018 019 
005 006 007 008 009 010 011 012 013 014 015 016 017 018 019 020 
006 007 008 009 010 011 012 013 014 015 016 017 018 019 020 021 
007 008 009 010 011 012 013 014 015 016 017 018 019 020 021 022 
008 009 010 011 012 013 014 015 016 017 018 019 020 021 022 023 
009 010 011 012 013 014 015 016 017 018 019 020 021 022 023 024 
010 011 012 013 014 015 016 017 018 019 020 021 022 023 024 025 
011 012 013 014 015 016 017 018 019 020 021 022 023 024 025 026 
012 013 014 015 016 017 018 019 020 021 022 023 024 025 026 027 
013 014 015 016 017 018 019 020 021 022 023 024 025 026 027 028 
014 015 016 017 018 019 020 021 022 023 024 025 026 027 028 029 
015 016 017 018 019 020 021 022 023 024 025 026 027 028 029 030 
