P2 
8 8 
255 
000 001 002 003 004 005 006 007 
001 002 003 004 005 006 007 008 
002 003 004 005 006 007 008 009 
003 004 005 006 007 008 009 010 
004 005 006 007 008 009 010 011 
005 006 007 008 009 010 011 012 
006 007 008 009 010 011 012 013 
007 008 009 010 011 012 013 014 
