P2 
4 4 
255 
000 001 002 003 
001 002 003 004 
002 003 004 005 
003 004 005 006 
